<svg width="100" height="30" viewBox="0 0 100 30" fill="none" xmlns="http://www.w3.org/2000/svg">
<rect width="100" height="30" rx="15" fill="white"/>
<path d="M35.5666 20V9.09091H42.1078V10.2628H36.8877V13.9489H41.6178V15.1207H36.8877V20H35.5666ZM44.112 20V11.8182H45.3265V13.054H45.4117C45.5609 12.6491 45.8307 12.3207 46.2214 12.0685C46.612 11.8164 47.0523 11.6903 47.5424 11.6903C47.6347 11.6903 47.7501 11.6921 47.8886 11.6957C48.0271 11.6992 48.1319 11.7045 48.2029 11.7116V12.9901C48.1603 12.9794 48.0626 12.9634 47.9099 12.9421C47.7608 12.9173 47.6028 12.9048 47.4359 12.9048C47.0381 12.9048 46.683 12.9883 46.3705 13.1552C46.0616 13.3185 45.8165 13.5458 45.6354 13.837C45.4579 14.1246 45.3691 14.4531 45.3691 14.8224V20H44.112ZM52.8744 20.1705C52.0861 20.1705 51.406 19.9964 50.8343 19.6484C50.2661 19.2969 49.8275 18.8068 49.5186 18.1783C49.2132 17.5462 49.0605 16.8111 49.0605 15.973C49.0605 15.1349 49.2132 14.3963 49.5186 13.7571C49.8275 13.1143 50.2572 12.6136 50.8077 12.255C51.3616 11.8928 52.0079 11.7116 52.7466 11.7116C53.1727 11.7116 53.5935 11.7827 54.009 11.9247C54.4245 12.0668 54.8027 12.2976 55.1436 12.6172C55.4845 12.9332 55.7562 13.3523 55.9586 13.8743C56.161 14.3963 56.2622 15.0391 56.2622 15.8026V16.3352H49.9554V15.2486H54.9838C54.9838 14.7869 54.8915 14.375 54.7068 14.0128C54.5257 13.6506 54.2665 13.3647 53.9291 13.1552C53.5953 12.9457 53.2011 12.8409 52.7466 12.8409C52.2459 12.8409 51.8126 12.9652 51.4469 13.2138C51.0847 13.4588 50.8059 13.7784 50.6106 14.1726C50.4153 14.5668 50.3176 14.9893 50.3176 15.4403V16.1648C50.3176 16.7827 50.4241 17.3065 50.6372 17.7362C50.8538 18.1623 51.1539 18.4872 51.5374 18.7109C51.9209 18.9311 52.3666 19.0412 52.8744 19.0412C53.2047 19.0412 53.503 18.995 53.7693 18.9027C54.0392 18.8068 54.2718 18.6648 54.4671 18.4766C54.6624 18.2848 54.8133 18.0469 54.9199 17.7628L56.1344 18.1037C56.0065 18.5156 55.7917 18.8778 55.4898 19.1903C55.188 19.4993 54.8151 19.7408 54.3712 19.9148C53.9273 20.0852 53.4284 20.1705 52.8744 20.1705ZM61.6049 20.1705C60.8165 20.1705 60.1365 19.9964 59.5648 19.6484C58.9966 19.2969 58.558 18.8068 58.2491 18.1783C57.9437 17.5462 57.791 16.8111 57.791 15.973C57.791 15.1349 57.9437 14.3963 58.2491 13.7571C58.558 13.1143 58.9877 12.6136 59.5381 12.255C60.0921 11.8928 60.7384 11.7116 61.4771 11.7116C61.9032 11.7116 62.324 11.7827 62.7395 11.9247C63.155 12.0668 63.5332 12.2976 63.8741 12.6172C64.215 12.9332 64.4866 13.3523 64.6891 13.8743C64.8915 14.3963 64.9927 15.0391 64.9927 15.8026V16.3352H58.6859V15.2486H63.7143C63.7143 14.7869 63.6219 14.375 63.4373 14.0128C63.2562 13.6506 62.9969 13.3647 62.6596 13.1552C62.3258 12.9457 61.9316 12.8409 61.4771 12.8409C60.9763 12.8409 60.5431 12.9652 60.1773 13.2138C59.8151 13.4588 59.5364 13.7784 59.341 14.1726C59.1457 14.5668 59.0481 14.9893 59.0481 15.4403V16.1648C59.0481 16.7827 59.1546 17.3065 59.3677 17.7362C59.5843 18.1623 59.8844 18.4872 60.2679 18.7109C60.6514 18.9311 61.0971 19.0412 61.6049 19.0412C61.9351 19.0412 62.2334 18.995 62.4998 18.9027C62.7697 18.8068 63.0023 18.6648 63.1976 18.4766C63.3929 18.2848 63.5438 18.0469 63.6503 17.7628L64.8648 18.1037C64.737 18.5156 64.5222 18.8778 64.2203 19.1903C63.9185 19.4993 63.5456 19.7408 63.1017 19.9148C62.6578 20.0852 62.1589 20.1705 61.6049 20.1705Z" fill="black"/>
</svg>
